<mxfile host="app.diagrams.net" modified="2020-10-27T23:41:27.029Z" agent="5.0 (Windows NT 10.0; Win64; x64) AppleWebKit/537.36 (KHTML, like Gecko) Chrome/85.0.4183.121 Safari/537.36 OPR/71.0.3770.287" etag="Bx7AxYj6JuHQrAATNU_F" version="13.7.7" type="github">
  <diagram id="pv7xCIPndjm_6NxVIxg7" name="Page-1">
    <mxGraphModel dx="1381" dy="764" grid="1" gridSize="10" guides="1" tooltips="1" connect="1" arrows="1" fold="1" page="1" pageScale="1" pageWidth="827" pageHeight="1169" math="0" shadow="0">
      <root>
        <mxCell id="0" />
        <mxCell id="1" parent="0" />
        <mxCell id="ybCQGcE19uhfeGwseql_-4" value="" style="edgeStyle=orthogonalEdgeStyle;rounded=0;orthogonalLoop=1;jettySize=auto;html=1;" edge="1" parent="1" source="ybCQGcE19uhfeGwseql_-1" target="ybCQGcE19uhfeGwseql_-2">
          <mxGeometry relative="1" as="geometry" />
        </mxCell>
        <mxCell id="ybCQGcE19uhfeGwseql_-1" value="Start" style="ellipse;whiteSpace=wrap;html=1;" vertex="1" parent="1">
          <mxGeometry x="190" y="10" width="120" height="80" as="geometry" />
        </mxCell>
        <mxCell id="ybCQGcE19uhfeGwseql_-5" value="" style="edgeStyle=orthogonalEdgeStyle;rounded=0;orthogonalLoop=1;jettySize=auto;html=1;" edge="1" parent="1" source="ybCQGcE19uhfeGwseql_-2" target="ybCQGcE19uhfeGwseql_-3">
          <mxGeometry relative="1" as="geometry" />
        </mxCell>
        <mxCell id="ybCQGcE19uhfeGwseql_-2" value="e_nro_multiplicando, e_nro_multiplicador,&lt;br&gt;s_nro_resultado, valor_aux;" style="shape=internalStorage;whiteSpace=wrap;html=1;dx=15;dy=15;rounded=1;arcSize=8;strokeWidth=2;" vertex="1" parent="1">
          <mxGeometry x="145" y="140" width="210" height="90" as="geometry" />
        </mxCell>
        <mxCell id="ybCQGcE19uhfeGwseql_-8" value="" style="edgeStyle=orthogonalEdgeStyle;rounded=0;orthogonalLoop=1;jettySize=auto;html=1;" edge="1" parent="1" source="ybCQGcE19uhfeGwseql_-3" target="ybCQGcE19uhfeGwseql_-7">
          <mxGeometry relative="1" as="geometry" />
        </mxCell>
        <mxCell id="ybCQGcE19uhfeGwseql_-3" value="e_nro_multiplicando" style="html=1;strokeWidth=2;shape=manualInput;whiteSpace=wrap;rounded=1;size=26;arcSize=11;" vertex="1" parent="1">
          <mxGeometry x="165" y="270" width="170" height="80" as="geometry" />
        </mxCell>
        <mxCell id="ybCQGcE19uhfeGwseql_-12" value="" style="edgeStyle=orthogonalEdgeStyle;rounded=0;orthogonalLoop=1;jettySize=auto;html=1;" edge="1" parent="1" source="ybCQGcE19uhfeGwseql_-7" target="ybCQGcE19uhfeGwseql_-10">
          <mxGeometry relative="1" as="geometry" />
        </mxCell>
        <mxCell id="ybCQGcE19uhfeGwseql_-7" value="e_nro_multiplicador" style="html=1;strokeWidth=2;shape=manualInput;whiteSpace=wrap;rounded=1;size=26;arcSize=11;" vertex="1" parent="1">
          <mxGeometry x="165" y="400" width="170" height="80" as="geometry" />
        </mxCell>
        <mxCell id="ybCQGcE19uhfeGwseql_-17" value="" style="edgeStyle=orthogonalEdgeStyle;rounded=0;orthogonalLoop=1;jettySize=auto;html=1;" edge="1" parent="1" source="ybCQGcE19uhfeGwseql_-10" target="ybCQGcE19uhfeGwseql_-14">
          <mxGeometry relative="1" as="geometry" />
        </mxCell>
        <mxCell id="ybCQGcE19uhfeGwseql_-10" value="s_nro_resultado = 0" style="rounded=1;whiteSpace=wrap;html=1;absoluteArcSize=1;arcSize=14;strokeWidth=2;" vertex="1" parent="1">
          <mxGeometry x="167.5" y="530" width="165" height="40" as="geometry" />
        </mxCell>
        <mxCell id="ybCQGcE19uhfeGwseql_-23" value="" style="edgeStyle=orthogonalEdgeStyle;rounded=0;orthogonalLoop=1;jettySize=auto;html=1;" edge="1" parent="1" source="ybCQGcE19uhfeGwseql_-14" target="ybCQGcE19uhfeGwseql_-22">
          <mxGeometry relative="1" as="geometry" />
        </mxCell>
        <mxCell id="ybCQGcE19uhfeGwseql_-14" value="valor_aux = 0" style="rounded=1;whiteSpace=wrap;html=1;absoluteArcSize=1;arcSize=14;strokeWidth=2;" vertex="1" parent="1">
          <mxGeometry x="167.5" y="610" width="165" height="40" as="geometry" />
        </mxCell>
        <mxCell id="ybCQGcE19uhfeGwseql_-25" value="" style="edgeStyle=orthogonalEdgeStyle;rounded=0;orthogonalLoop=1;jettySize=auto;html=1;" edge="1" parent="1" source="ybCQGcE19uhfeGwseql_-22" target="ybCQGcE19uhfeGwseql_-24">
          <mxGeometry relative="1" as="geometry" />
        </mxCell>
        <mxCell id="ybCQGcE19uhfeGwseql_-22" value="for(valor_aux = 0;&lt;br&gt;valor_aux &amp;lt; e_nro_multiplicador;&lt;br&gt;valor_aux++)" style="verticalLabelPosition=middle;verticalAlign=middle;html=1;shape=process;whiteSpace=wrap;rounded=1;size=0.14;arcSize=6;align=center;labelPosition=center;" vertex="1" parent="1">
          <mxGeometry x="118.75" y="690" width="262.5" height="70" as="geometry" />
        </mxCell>
        <mxCell id="ybCQGcE19uhfeGwseql_-30" value="" style="edgeStyle=orthogonalEdgeStyle;rounded=0;orthogonalLoop=1;jettySize=auto;html=1;" edge="1" parent="1" source="ybCQGcE19uhfeGwseql_-24" target="ybCQGcE19uhfeGwseql_-28">
          <mxGeometry relative="1" as="geometry" />
        </mxCell>
        <mxCell id="ybCQGcE19uhfeGwseql_-24" value="s_nro_resultado = s_nro_resultado + e_nro_multiplicando;" style="rounded=1;whiteSpace=wrap;html=1;absoluteArcSize=1;arcSize=14;strokeWidth=2;align=center;" vertex="1" parent="1">
          <mxGeometry x="131.25" y="800" width="237.5" height="70" as="geometry" />
        </mxCell>
        <mxCell id="ybCQGcE19uhfeGwseql_-31" value="" style="edgeStyle=orthogonalEdgeStyle;rounded=0;orthogonalLoop=1;jettySize=auto;html=1;" edge="1" parent="1" source="ybCQGcE19uhfeGwseql_-28" target="ybCQGcE19uhfeGwseql_-29">
          <mxGeometry relative="1" as="geometry" />
        </mxCell>
        <mxCell id="ybCQGcE19uhfeGwseql_-28" value="s_nro_resultado" style="strokeWidth=2;html=1;shape=mxgraph.flowchart.document2;whiteSpace=wrap;size=0.25;align=center;labelPosition=center;verticalLabelPosition=middle;verticalAlign=middle;" vertex="1" parent="1">
          <mxGeometry x="170" y="910" width="160" height="90" as="geometry" />
        </mxCell>
        <mxCell id="ybCQGcE19uhfeGwseql_-29" value="end" style="ellipse;whiteSpace=wrap;html=1;align=center;" vertex="1" parent="1">
          <mxGeometry x="190" y="1050" width="120" height="80" as="geometry" />
        </mxCell>
      </root>
    </mxGraphModel>
  </diagram>
</mxfile>
